<svg xmlns="http://www.w3.org/2000/svg" width="1200" height="630" viewBox="0 0 1200 630">
  <defs>
    <linearGradient id="spectrum" x1="0" y1="1" x2="1" y2="0">
      <stop stop-color="#6cf2ca"/>
      <stop offset=".38" stop-color="#46cfff"/>
      <stop offset=".68" stop-color="#9f83ff"/>
      <stop offset=".86" stop-color="#ef6fba"/>
      <stop offset="1" stop-color="#ffbd66"/>
    </linearGradient>
    <radialGradient id="glow" cx="72%" cy="45%" r="62%">
      <stop stop-color="#173c5c" stop-opacity=".83"/>
      <stop offset="1" stop-color="#07101a" stop-opacity="0"/>
    </radialGradient>
    <filter id="blur"><feGaussianBlur stdDeviation="34"/></filter>
  </defs>
  <rect width="1200" height="630" fill="#07101a"/>
  <rect width="1200" height="630" fill="url(#glow)"/>
  <circle cx="954" cy="309" r="175" fill="#1980ac" opacity=".2" filter="url(#blur)"/>
  <rect x="84" y="81" width="76" height="76" rx="20" fill="#0a2562"/>
  <circle cx="122" cy="119" r="27" fill="none" stroke="url(#spectrum)" stroke-width="6"/>
  <circle cx="122" cy="119" r="14" fill="none" stroke="#95b0ff" stroke-width="4"/>
  <circle cx="122" cy="119" r="6" fill="url(#spectrum)"/>
  <text x="179" y="132" fill="#eff7f7" font-family="Arial, sans-serif" font-size="29" font-weight="700" letter-spacing="-1">Pipetka</text>
  <text x="84" y="287" fill="#eff7f7" font-family="Arial, sans-serif" font-size="69" font-weight="700" letter-spacing="-5">Pick the pixel.</text>
  <text x="84" y="371" fill="url(#spectrum)" font-family="Arial, sans-serif" font-size="69" font-weight="700" letter-spacing="-5">Keep the color.</text>
  <text x="88" y="431" fill="#aabac2" font-family="Arial, sans-serif" font-size="22">A native macOS color picker with image palettes,</text>
  <text x="88" y="463" fill="#aabac2" font-family="Arial, sans-serif" font-size="22">color names, and formats for the work you do.</text>
  <rect x="88" y="525" width="172" height="38" rx="19" fill="#102232" stroke="#284357"/>
  <circle cx="109" cy="544" r="5" fill="#6cf2ca"/>
  <text x="126" y="549" fill="#bed0d7" font-family="Courier New, monospace" font-size="13" letter-spacing="1.5">macOS 13+</text>
  <g transform="translate(707 122) rotate(7 190 185)">
    <rect x="15" y="14" width="370" height="390" rx="24" fill="#0c1a28" stroke="#456376" stroke-opacity=".65" stroke-width="2"/>
    <rect x="36" y="38" width="328" height="230" rx="13" fill="#101e2d" stroke="#557080" stroke-opacity=".48"/>
    <circle cx="200" cy="152" r="86" fill="none" stroke="url(#spectrum)" stroke-width="25"/>
    <circle cx="200" cy="152" r="42" fill="#142c49" stroke="#9bb5ff" stroke-opacity=".7" stroke-width="7"/>
    <circle cx="200" cy="152" r="15" fill="url(#spectrum)"/>
    <g transform="translate(36 295)">
      <rect width="328" height="70" rx="11" fill="#132433" stroke="#426074" stroke-opacity=".5"/>
      <rect x="14" y="14" width="42" height="42" rx="8" fill="#193b45"/>
      <rect x="65" y="14" width="42" height="42" rx="8" fill="#477d70"/>
      <rect x="116" y="14" width="42" height="42" rx="8" fill="#83a992"/>
      <rect x="167" y="14" width="42" height="42" rx="8" fill="#e2b668"/>
      <rect x="218" y="14" width="42" height="42" rx="8" fill="#c56b50"/>
      <rect x="269" y="14" width="42" height="42" rx="8" fill="#9c6e8a"/>
    </g>
  </g>
  <rect x="956" y="392" width="164" height="80" rx="14" fill="#112332" stroke="#385266"/>
  <circle cx="978" cy="419" r="6" fill="#6cf2ca"/>
  <text x="995" y="424" fill="#eef6f7" font-family="Arial, sans-serif" font-size="13" font-weight="700">8 colors found</text>
  <text x="978" y="449" fill="#9db0b8" font-family="Courier New, monospace" font-size="10">CSS · RGB · SWIFTUI</text>
</svg>
